#!OML:ASF H:\ManfredETheater\Project 1\Capture day 1\Session 1\subject.ASF
:FULLY-SPECIFIED
:DEGREES
62
root -9.59681 16.4984 -11.0272 4.67269 7.89456 -9.55308
lowerback 23.3097 0.10137 6.81965
upperback 3.31741 2.57044 6.75635
thorax -9.39933 1.11318 2.81077
lowerneck -21.7356 1.93031 2.66474
upperneck 7.56492 3.36166 -11.2173
head 6.07941 0.779597 -3.68716
rclavicle -2.78299e-015 -3.18055e-015
rhumerus -38.1722 8.35994 -85.0563
rradius 110.174
rwrist -9.08082
rhand -25.0612 14.6344
rfingers 7.12502
rthumb 1.45242 -15.3404
lclavicle -2.78299e-015 -3.18055e-015
lhumerus -61.429 -5.78296 93.2492
lradius 84.4633
lwrist 12.3513
lhand -18.2648 -14.7425
lfingers 7.12502
lthumb 8.01476 15.0855
rfemur -19.9412 -1.531 15.3993
rtibia 76.3047
rfoot 12.6728 1.53684
rtoes -33.1305
lfemur -54.8508 0.537343 -23.7103
ltibia 44.2935
lfoot 2.62271 3.37571
ltoes 0.77703
63
root -9.53226 16.4512 -10.4743 3.77632 8.51763 -9.83846
lowerback 23.3218 -0.0275006 6.97473
upperback 3.46432 2.44388 6.87083
thorax -9.23897 1.05631 2.88715
lowerneck -21.5991 2.85802 3.32793
upperneck 8.53138 4.66369 -12.1463
head 6.51366 1.32615 -3.95549
rclavicle -3.77691e-014 -4.77083e-015
rhumerus -38.7651 7.24195 -84.856
rradius 109.504
rwrist -8.70365
rhand -25.3328 14.509
rfingers 7.12502
rthumb 1.19012 -15.4675
lclavicle -3.77691e-014 -4.77083e-015
lhumerus -61.195 -6.19695 92.3668
lradius 85.4885
lwrist 12.3209
lhand -18.0668 -14.7662
lfingers 7.12502
lthumb 8.20591 15.0545
rfemur -19.7086 -1.89236 15.5519
rtibia 78.1467
rfoot 11.3027 2.12822
rtoes -33.4851
lfemur -53.7059 0.995011 -23.925
ltibia 41.3767
lfoot 5.30365 2.65786
ltoes 1.57984
64
root -9.46828 16.3872 -9.92224 2.90293 9.15707 -10.1393
lowerback 23.2478 -0.18507 7.21396
upperback 3.57971 2.2868 6.92436
thorax -9.06181 0.981336 2.85656
lowerneck -21.3313 3.8042 3.97935
upperneck 9.44004 5.99637 -12.9615
head 6.92901 1.8989 -4.17454
rclavicle -2.26615e-014 -9.54166e-015
rhumerus -39.451 5.92911 -84.6203
rradius 108.547
rwrist -8.12881
rhand -25.6314 14.2967
rfingers 7.12502
rthumb 0.901743 -15.6811
lclavicle -2.26615e-014 -9.54166e-015
lhumerus -60.6678 -6.82827 91.266
lradius 86.4327
lwrist 12.1379
lhand -17.9995 -14.7005
lfingers 7.12502
lthumb 8.27085 15.1176
rfemur -19.7792 -2.43652 15.7185
rtibia 80.0976
rfoot 9.61379 2.27312
rtoes -34.2394
lfemur -52.7144 1.55639 -24.2681
ltibia 39.5537
lfoot 7.27903 1.88711
ltoes 3.92433
65
root -9.40327 16.31 -9.37404 2.05737 9.82107 -10.3872
lowerback 23.1229 -0.3716 7.48303
upperback 3.66548 2.0869 6.89762
thorax -8.88711 0.883787 2.73181
lowerneck -20.9263 4.74374 4.59857
upperneck 10.2476 7.32029 -13.6375
head 7.30166 2.48397 -4.33697
rclavicle 3.57812e-014 -9.54166e-015
rhumerus -40.2106 4.49171 -84.3359
rradius 107.34
rwrist -7.48152
rhand -25.9194 13.9681
rfingers 7.12502
rthumb 0.623626 -16.0108
lclavicle 3.57812e-014 -9.54166e-015
lhumerus -59.8212 -7.60196 89.9287
lradius 87.2916
lwrist 11.89
lhand -18.0579 -14.5529
lfingers 7.12502
lthumb 8.21441 15.2674
rfemur -20.1588 -3.15869 15.798
rtibia 82.0922
rfoot 7.78136 2.08133
rtoes -35.1499
lfemur -51.9156 2.19299 -24.812
ltibia 38.9654
lfoot 8.31016 0.945528
ltoes 7.48572
66
root -9.33703 16.2229 -8.83434 1.23573 10.5159 -10.5268
lowerback 23.016 -0.58234 7.72222
upperback 3.72687 1.84301 6.78208
thorax -8.74903 0.764184 2.53806
lowerneck -20.4021 5.64848 5.14734
upperneck 10.9128 8.59413 -14.1521
head 7.60897 3.06471 -4.43465
rclavicle -6.36111e-015 -2.14687e-014
rhumerus -41.0065 2.99668 -83.9942
rradius 105.912
rwrist -6.92796
rhand -26.1631 13.5248
rfingers 7.12502
rthumb 0.38819 -16.4546
lclavicle -6.36111e-015 -2.14687e-014
lhumerus -58.6291 -8.42659 88.3527
lradius 88.0684
lwrist 11.6685
lhand -18.2405 -14.3521
lfingers 7.12502
lthumb 8.03819 15.475
rfemur -20.8412 -4.03014 15.7201
rtibia 84.0622
rfoot 6.02059 1.66308
rtoes -35.7657
lfemur -51.3289 2.71198 -25.4505
ltibia 39.6432
lfoot 8.34179 0.0389874
ltoes 11.8108
67
root -9.27127 16.1278 -8.30662 0.438258 11.2799 -10.4536
lowerback 22.9954 -0.812088 7.80567
upperback 3.77285 1.53893 6.56794
thorax -8.67886 0.617747 2.34129
lowerneck -19.7827 6.49664 5.60245
upperneck 11.3978 9.78491 -14.518
head 7.83192 3.62531 -4.47376
rclavicle -2.90226e-014 2.38542e-014
rhumerus -41.8062 1.51068 -83.5857
rradius 104.297
rwrist -6.62008
rhand -26.3341 12.9854
rfingers 7.12502
rthumb 0.223043 -16.9943
lclavicle -2.90226e-014 2.38542e-014
lhumerus -57.0725 -9.19256 86.5556
lradius 88.768
lwrist 11.5271
lhand -18.5202 -14.098
lfingers 7.12502
lthumb 7.76827 15.7393
rfemur -21.7947 -5.04358 15.3662
rtibia 85.9445
rfoot 4.29414 1.12216
rtoes -36.249
lfemur -50.9011 2.9047 -26.154
ltibia 41.493
lfoot 7.44001 -0.564538
ltoes 16.4584
68
root -9.20818 16.0245 -7.79198 -0.34244 12.1292 -10.0634
lowerback 23.1277 -1.04635 7.61155
upperback 3.82451 1.16886 6.24142
thorax -8.69069 0.444784 2.19813
lowerneck -19.1065 7.26731 5.94196
upperneck 11.6848 10.861 -14.7454
head 7.96057 4.14905 -4.46053
rclavicle -3.10104e-014 0
rhumerus -42.582 0.0851342 -83.1132
rradius 102.542
rwrist -6.66636
rhand -26.4349 12.3716
rfingers 7.12502
rthumb 0.125671 -17.6081
lclavicle -3.10104e-014 0
lhumerus -55.1396 -9.79252 84.5741
lradius 89.4003
lwrist 11.4663
lhand -18.8612 -13.7884
lfingers 7.12502
lthumb 7.43915 16.0608
rfemur -22.9572 -6.16689 14.6135
rtibia 87.6842
rfoot 2.49908 0.545599
rtoes -36.7049
lfemur -50.5369 2.65318 -26.9493
ltibia 44.3026
lfoot 5.76828 -0.7387
ltoes 20.7472
69
root -9.14986 15.9126 -7.29044 -1.06868 13.0727 -9.37288
lowerback 23.4005 -1.27355 7.13189
upperback 3.88561 0.743714 5.8247
thorax -8.77139 0.251542 2.13671
lowerneck -18.4148 7.94445 6.15305
upperneck 11.7765 11.8009 -14.8618
head 7.99604 4.62148 -4.40763
rclavicle -5.56597e-015 5.00937e-014
rhumerus -43.3326 -1.24436 -82.575
rradius 100.694
rwrist -7.09029
rhand -26.507 11.738
rfingers 7.12502
rthumb 0.0560296 -18.2417
lclavicle -5.56597e-015 5.00937e-014
lhumerus -52.8565 -10.1227 82.4834
lradius 89.9793
lwrist 11.4259
lhand -19.2734 -13.4192
lfingers 7.12502
lthumb 7.04126 16.4436
rfemur -24.3391 -7.34987 13.4967
rtibia 89.2229
rfoot 0.613159 -0.0788818
rtoes -37.1695
lfemur -50.2138 1.96187 -27.8263
ltibia 47.8015
lfoot 3.55319 -0.533731
ltoes 24.1805
70
root -9.09715 15.793 -6.80066 -1.71353 14.0803 -8.49587
lowerback 23.7798 -1.48183 6.46591
upperback 3.9615 0.298717 5.36019
thorax -8.89157 0.0535968 2.13934
lowerneck -17.7599 8.52273 6.2414
upperneck 11.6995 12.6003 -14.9121
head 7.9557 5.03391 -4.33335
rclavicle -2.8625e-014 1.35174e-014
rhumerus -44.053 -2.46081 -81.9729
rradius 98.7924
rwrist -7.80775
rhand -26.559 11.1378
rfingers 7.12502
rthumb 0.00587283 -18.8419
lclavicle -2.8625e-014 1.35174e-014
lhumerus -50.2698 -10.1081 80.3883
lradius 90.5364
lwrist 11.3141
lhand -19.7406 -12.9836
lfingers 7.12502
lthumb 6.59022 16.8938
rfemur -25.9518 -8.49002 12.1802
rtibia 90.4732
rfoot -1.29872 -0.811477
rtoes -37.6064
lfemur -49.9342 0.955678 -28.7219
ltibia 51.7083
lfoot 1.01421 -0.112502
ltoes 26.1903
71
root -9.049 15.6702 -6.32061 -2.26121 15.0761 -7.53935
lowerback 24.2169 -1.64832 5.70435
upperback 4.06259 -0.119328 4.88944
thorax -9.01001 -0.127883 2.18625
lowerneck -17.1833 9.00184 6.22756
upperneck 11.4903 13.2644 -14.9525
head 7.86353 5.38162 -4.25963
rclavicle 4.41302e-014 2.94201e-014
rhumerus -44.7551 -3.54977 -81.3102
rradius 96.8817
rwrist -8.63777
rhand -26.6246 10.6002
rfingers 7.12502
rthumb -0.0575413 -19.3795
lclavicle 4.41302e-014 2.94201e-014
lhumerus -47.4569 -9.69555 78.4158
lradius 91.1115
lwrist 11.0496
lhand -20.2659 -12.4873
lfingers 7.12502
lthumb 6.08312 17.4053
rfemur -27.795 -9.44603 10.8237
rtibia 91.3267
rfoot -3.14793 -1.70892
rtoes -38.0349
lfemur -49.682 -0.166761 -29.5961
ltibia 55.7679
lfoot -1.66316 0.352504
ltoes 26.736
72
root -9.00184 15.5513 -5.84799 -2.7151 16.0024 -6.61852
lowerback 24.6493 -1.76894 4.96145
upperback 4.19611 -0.47916 4.45382
thorax -9.08465 -0.280566 2.24634
lowerneck -16.7236 9.39199 6.13203
upperneck 11.209 13.8144 -15.0206
head 7.75237 5.66825 -4.19804
rclavicle -4.55217e-014 -3.49861e-014
rhumerus -45.44 -4.49169 -80.5996
rradius 94.9842
rwrist -9.38007
rhand -26.7271 10.1427
rfingers 7.12502
rthumb -0.156504 -19.837
lclavicle -4.55217e-014 -3.49861e-014
lhumerus -44.5198 -8.8671 76.7026
lradius 91.7512
lwrist 10.6077
lhand -20.8258 -11.9406
lfingers 7.12502
lthumb 5.54252 17.9669
rfemur -29.8175 -10.1116 9.57969
rtibia 91.6554
rfoot -4.83216 -2.76672
rtoes -38.405
lfemur -49.4074 -1.21258 -30.405
ltibia 59.7496
lfoot -4.20891 0.91065
ltoes 27.0492
73
root -8.95113 15.4437 -5.38126 -3.09255 16.7761 -5.856
lowerback 25.0252 -1.83948 4.36067
upperback 4.3598 -0.741602 4.08983
thorax -9.09296 -0.389652 2.27412
lowerneck -16.3824 9.70534 5.9848
upperneck 10.9101 14.2735 -15.1516
head 7.64829 5.90085 -4.16044
rclavicle 1.80894e-014 8.74653e-015
rhumerus -46.1185 -5.26382 -79.8623
rradius 93.1235
rwrist -9.87747
rhand -26.8511 9.75161
rfingers 7.12502
rthumb -0.276312 -20.2279
lclavicle 1.80894e-014 8.74653e-015
lhumerus -41.5849 -7.66869 75.3764
lradius 92.5165
lwrist 10.0539
lhand -21.3948 -11.3488
lfingers 7.12502
lthumb 4.99316 18.5724
rfemur -31.9524 -10.3692 8.58672
rtibia 91.3414
rfoot -6.25203 -3.938
rtoes -38.6422
lfemur -49.068 -2.00144 -31.0656
ltibia 63.4853
lfoot -6.75856 1.01833
ltoes 25.9896
74
root -8.89287 15.3524 -4.91926 -3.42536 17.3435 -5.32927
lowerback 25.3221 -1.86266 3.98105
upperback 4.54688 -0.884626 3.82183
thorax -9.03413 -0.447282 2.24197
lowerneck -16.1624 9.95283 5.79297
upperneck 10.6552 14.6647 -15.3459
head 7.57506 6.08743 -4.14328
rclavicle 7.15625e-015 7.95139e-015
rhumerus -46.7732 -5.83929 -79.1228
rradius 91.2958
rwrist -10.0749
rhand -26.9821 9.41157
rfingers 7.12502
rthumb -0.402826 -20.5678
lclavicle 7.15625e-015 7.95139e-015
lhumerus -38.7539 -6.19463 74.5416
lradius 93.4373
lwrist 9.51689
lhand -21.9427 -10.7527
lfingers 7.12502
lthumb 4.4641 19.1803
rfemur -34.0838 -10.1555 7.89449
rtibia 90.3064
rfoot -7.37079 -5.13443
rtoes -38.7761
lfemur -48.6079 -2.42114 -31.5224
ltibia 66.8698
lfoot -9.19677 1.02297
ltoes 24.8034
75
root -8.82484 15.2787 -4.46135 -3.73806 17.6976 -5.04709
lowerback 25.5419 -1.85212 3.83522
upperback 4.74275 -0.918637 3.65285
thorax -8.92768 -0.458765 2.14868
lowerneck -16.0292 10.1464 5.56824
upperneck 10.4798 15.0071 -15.5937
head 7.54041 6.23797 -4.1425
rclavicle 6.95746e-015 -6.36111e-015
rhumerus -47.3844 -6.17876 -78.4161
rradius 89.5113
rwrist -10.0387
rhand -27.0804 9.09361
rfingers 7.12502
rthumb -0.497735 -20.8855
lclavicle 6.95746e-015 -6.36111e-015
lhumerus -36.1302 -4.58545 74.2501
lradius 94.5485
lwrist 9.17024
lhand -22.4249 -10.1815
lfingers 7.12502
lthumb 3.99847 19.7607
rfemur -36.0839 -9.48213 7.44257
rtibia 88.5291
rfoot -8.18788 -6.21445
rtoes -38.8971
lfemur -47.9765 -2.39308 -31.803
ltibia 69.8801
lfoot -11.4897 0.95822
ltoes 23.8926
76
root -8.74655 15.2207 -4.00724 -4.06066 17.8682 -5.00151
lowerback 25.7185 -1.82837 3.92688
upperback 4.92769 -0.865714 3.57377
thorax -8.81343 -0.434357 1.99042
lowerneck -15.9535 10.2925 5.31417
upperneck 10.4182 15.3091 -15.8573
head 7.54796 6.35859 -4.14576
rclavicle 2.50469e-014 -1.39149e-014
rhumerus -47.9316 -6.26985 -77.7842
rradius 87.7794
rwrist -9.92596
rhand -27.1318 8.78551
rfingers 7.12502
rthumb -0.547373 -21.1935
lclavicle 2.50469e-014 -1.39149e-014
lhumerus -33.7747 -3.0296 74.4986
lradius 95.8438
lwrist 9.16372
lhand -22.8277 -9.68771
lfingers 7.12502
lthumb 3.60951 20.2615
rfemur -37.8171 -8.42678 7.14433
rtibia 86.0462
rfoot -8.75167 -6.99589
rtoes -39.0144
lfemur -47.1917 -1.94815 -31.8921
ltibia 72.5584
lfoot -13.5827 0.801705
ltoes 23.0967
